<svg xmlns="http://www.w3.org/2000/svg" viewBox="0 0 46.667 46"><path d="M28.943 24.75l-2.648-7.305c4.913-4.381 8.211-11.814 8.663-12.868l-3.677-1.575c-1.384 3.231-6.035 11.948-10.866 13.45-4.226 1.316-13.278-1.3-16.409-2.419L2.66 17.799c1.03.369 8.62 3.007 14.807 3.007.518 0 1.02-.027 1.514-.066l2.686 7.411c-4.009 4.531-3.588 13.17-3.516 14.271l3.991-.261c-.167-2.552.131-10.275 3.564-12.226 6.512-3.699 14.387 1.803 14.462 1.856l2.332-3.25c-.325-.232-6.577-4.628-13.557-3.791z"/><circle cx="29.546" cy="34.76" r="3.594"/></svg>