<svg xmlns="http://www.w3.org/2000/svg" viewBox="0 0 88.45 129.55"><defs><style>.cls-4{fill:#7fcaa8}.cls-5{fill:#f6f9e5}.cls-6{fill:#20b8b3}.cls-7{fill:#f37375}.cls-9{fill:#fff;opacity:.3}</style></defs><g style="isolation:isolate"><g id="Layer_1" data-name="Layer 1"><path d="M20.62 13.95C7.53 20.37 3 55.2 15.86 81.49c10.21 20.83 28.65 27.78 47.07 18.75s24.22-27.86 14-48.69C64 25.25 33.71 7.53 20.62 13.95z" fill="#262262"/><path d="M17.7 7.75C4.74 14.08-.13 47.94 12.3 73.39c9.84 20.16 27.94 26.77 46.18 17.87S82.63 64 72.79 43.85C60.36 18.41 30.67 1.42 17.7 7.75z" fill="#eea7bb"/><path class="cls-4" d="M21 6.76l.19-.09a12.77 12.77 0 0 0-3.49 1.08 11.38 11.38 0 0 1 3.25-1M38.59 11.07l1-.47-.43-.21A48.89 48.89 0 0 0 33.26 8l-.72.35a48.54 48.54 0 0 1 6 2.68M27.71 7l.51-.25-1-.15-1.77-.17-.39.19a24.49 24.49 0 0 1 2.65.38M61.06 29.52l1.63-.79a77.528 77.528 0 0 0-4.82-5.08l-1.05-1-1.49.73a82.3 82.3 0 0 1 5.74 6.15M74.29 53l1.71-.81q-.33-1.17-.73-2.35a51.19 51.19 0 0 0-2.16-5.31l-.39.19-.48.24-.88.43A52.4 52.4 0 0 1 74.29 53M67.85 38.92l1.74-.85q-.49-.8-1-1.58-.67-1-1.38-2l-1.71.83q1.23 1.77 2.36 3.61M72.79 77.78l1-.51.4-.75c.64-1.4 1.42-3.3 1.93-4.75l.18-.61-1.3.64a28 28 0 0 1-2.26 6M58.48 91.25a41.09 41.09 0 0 0 5.1-2.95l-.31.15a36.5 36.5 0 0 1-4.8 2.8M67.68 84.78l.61-.3A32 32 0 0 0 70.63 82l-.78.38a29.07 29.07 0 0 1-2.16 2.43M14.74 9.79a12.76 12.76 0 0 1 3-2 28.71 28.71 0 0 0-3 2M6.62 26.26l-.1.47a49.39 49.39 0 0 1 1.84-6.53c-.58 1.8-1.31 4.22-1.74 6.06M11 14.56q-.26.43-.5.89a26.13 26.13 0 0 1 1.45-2.39l-1 1.5M5.54 49.18c.28 2.08.68 4.86 1 6.93a78.82 78.82 0 0 1-1.14-8.37q.06.72.14 1.44M15.49 79q.68 1 1.4 2a49.45 49.45 0 0 1-4.26-7c.82 1.51 1.93 3.52 2.86 5M9.08 65.54l.63 1.77q-.75-2-1.37-4.1.35 1.17.74 2.33M32.24 93.22c1.46.48 3.44 1 4.94 1.4l.83.15A29.12 29.12 0 0 1 31.65 93l.59.23M53 93.46c1.66-.6 3.85-1.49 5.46-2.21A41.07 41.07 0 0 1 53 93.47M47.09 94.83a32 32 0 0 1-3.41.29c1-.08 2.39-.16 3.41-.29"/><path class="cls-5" d="M21.14 6.67l-3.26 1.59-3.14 1.53a28 28 0 0 1 3-2 12.77 12.77 0 0 1 3.44-1.08"/><path class="cls-6" d="M39.12 10.4l.43.21-16.8 8.2-16.23 7.92.1-.47c.47-1.83 1.16-4.26 1.75-6.06l12.23-6L33.26 8a48.89 48.89 0 0 1 5.85 2.35"/><path class="cls-7" d="M27.22 6.63l1 .15-9 4.41-8.72 4.26q.25-.45.5-.89l1-1.5 6.64-3.24 6.88-3.36 1.77.17"/><path class="cls-5" d="M57.86 23.64c1.66 1.61 3.28 3.3 4.82 5.08L34.14 42.66 6.58 56.11c-.35-2.07-.79-4.84-1-6.93q-.08-.72-.14-1.44l25.22-12.33 26.15-12.77 1.05 1"/><path class="cls-6" d="M75.27 49.84q.4 1.18.73 2.35L45.93 66.87l-29 14.18q-.72-1-1.4-2c-.89-1.47-2-3.45-2.86-5l29.67-14.5 30.76-15a51.19 51.19 0 0 1 2.16 5.31"/><path class="cls-7" d="M68.58 36.49q.52.78 1 1.58L39.12 52.94 9.71 67.31l-.63-1.77q-.39-1.16-.74-2.33l28.91-14.12 29.94-14.62q.71 1 1.38 2"/><path class="cls-5" d="M76.16 71.77a67.43 67.43 0 0 1-1.93 4.75l-.4.75-18.22 8.9L38 94.76l-.83-.15c-1.5-.35-3.48-.91-4.94-1.4l-.58-.21 22-10.72 22.74-11.1-.18.61"/><path class="cls-6" d="M63.58 88.31a41.09 41.09 0 0 1-5.1 2.95c-1.61.72-3.8 1.61-5.46 2.21l5.2-2.54 5.38-2.63"/><path class="cls-7" d="M68.3 84.48l-10.79 5.26-10.42 5.09c-1 .1-2.39.25-3.41.29l13.24-6.46L70.62 82a32 32 0 0 1-2.33 2.51"/><path class="cls-5" d="M10.83 34.51c.17 3.49-1.29 5.81-2.5 4.86C6.66 38 7 31.81 8.74 30.7c1.24-.44 2 2 2.08 3.81M23.77 28.19c1.21 3.39-1.33 6.08-3.66 4.91s-3.11-6.19-.61-7.65c2-.79 3.71 1.17 4.27 2.74M37.36 21.55c2 2.43 1.09 4.47-1.09 4.37-3.39-.16-6.16-4.75-4.58-6.34a2.08 2.08 0 0 1 .38-.27c1.76-.7 4.15.9 5.28 2.25M45.68 17.49c2.08 1.6 3 3 2 3.19-1.84.38-8.14-4.45-7.17-5.5l.09-.07c1-.3 3.52 1.2 5 2.37M31.43 85c1.7 2 1.17 3.85-1.06 3.64-3.31-.31-6.53-4.31-4.59-5.7l.22-.13c1.88-.74 4.31.83 5.43 2.19M47.34 77.22c1.23 3.11-2 5.88-5.24 4.42-2.51-1.14-3.64-4.72-.42-6.51a4.2 4.2 0 0 1 5.66 2.08M64 69.07c.4 3.51-2.68 6.18-4.92 4.27a4.61 4.61 0 0 1 .92-7.15c2.44-1 3.82 1.07 4 2.88M74.26 64.08c0 2.81-1 5-2 4.09-1.2-1.11-1.58-6.92.22-8.07 1.21-.41 1.77 2.13 1.76 4"/><path d="M29.24 7a75.45 75.45 0 0 1 33.9 33.54C73 60.7 67.07 79 48.83 87.94c-7 3.4-13.91 4.53-20.38 3.52 8.9 4.9 19.44 5 30-.2C76.72 82.35 82.63 64 72.79 43.85 63.3 24.42 43.73 9.91 29.24 7z" style="mix-blend-mode:multiply" opacity=".5" fill="#f37375"/><ellipse class="cls-9" cx="17.79" cy="38.38" rx="8.07" ry="17.63" transform="rotate(-3.48 17.778 38.431)"/><path class="cls-9" d="M14.08 74C1.66 48.56 6.53 14.69 19.49 8.36c3.91-1.91 9.34-1.69 15.36.23C28.12 6.12 22 5.65 17.7 7.75 4.74 14.08-.13 47.94 12.3 73.39 17.57 84.19 25.21 91.1 34 93.82 26 90.75 19 84.06 14.08 74z"/></g></g></svg>