<svg xmlns="http://www.w3.org/2000/svg" viewBox="0 0 100.23 129.55"><defs><style>.cls-4{fill:#f6f9e5}.cls-5{fill:#f37375}.cls-6{fill:#fff;opacity:.3}</style></defs><g style="isolation:isolate"><g id="Layer_1" data-name="Layer 1"><path d="M85.89 11.31C70 2.12 30.39 21.77 11.95 53.68-2.67 79 3 103.11 25.35 116s46.1 5.78 60.72-19.5c18.45-31.88 15.7-76.01-.18-85.19z" fill="#262262"/><path d="M86.48 7.89c-15.36-9.61-54.69 7.7-73.56 37.84-15 23.89-10 47.57 11.63 61.1s45.08 7.65 60-16.24c18.9-30.14 17.28-73.09 1.93-82.7z" fill="#8dd2cc"/><path class="cls-4" d="M86.7 8.07c1 .83 1.07 1.53.07 1.71-2.87.53-11.16-3.23-10.7-4.32.12-.28.75-.3 1.27-.27 1.08.14 2.53.27 3.6.49l1.45.37c-1.14-.33-1.29-.25-1.44-.16.17.76 5.12 2.68 5.57 2.16 0-.11-.05-.15-.29-.31.14.1.34.22.47.33M98.26 42.48v2q.05-1.58 0-3.13c-.08-2.72-.29-6.34-.53-9.05.05.75.1 1.76.09 2.52a66.19 66.19 0 0 1 .43 7.68M93.07 72.59l-.76 2.2Q93 73 93.56 71.16a98.47 98.47 0 0 0 2.65-10 28.12 28.12 0 0 1-1 2.85 67.48 67.48 0 0 1-2.2 8.61M77.87 99.61l-1.34 1.45q1.8-1.85 3.51-3.95a64.81 64.81 0 0 0 4.59-6.47 25.06 25.06 0 0 1-2 2.36 45.48 45.48 0 0 1-4.79 6.61M55.93 113.08l-1.64.35q1.53-.28 3-.68a37.9 37.9 0 0 0 6.14-2.25l1.16-.56c-.74.31-1.74.68-2.51.91a29.58 29.58 0 0 1-6.18 2.24M59.14 8.37c-1.45.57-3.4 1.31-4.83 1.93l.15-.06a73 73 0 0 1 6.84-2.61h-.15q-1 .32-2 .69M34 22.56q-2.38 1.88-4.68 3.93l.15-.12c2.16-1.92 4.39-3.74 6.66-5.43L36 21q-1 .74-2 1.52M4.4 73.92c.07 1.06.13 2.49.25 3.54v-.14a39.37 39.37 0 0 1-.17-6.94v.15q-.1 1.71-.06 3.39M13.79 97.79q.74.85 1.54 1.68l-.11-.11a41 41 0 0 1-4.45-5.48l.08.12c.86 1.15 2 2.7 2.93 3.79"/><path class="cls-5" d="M89.23 10.14c5.43 5.66 5.6 14.38-5.32 14.37-12 0-33-10.65-30.12-13.74a2.48 2.48 0 0 1 .75-.5C56 9.7 57.91 8.9 59.38 8.38q1-.36 2-.68c-3.47 1.26 1.46 4.86 7.86 7.61 15.09 6.47 24 4 21.55-2.35a10.74 10.74 0 0 0-4.34-5.06 22 22 0 0 1 2.76 2.25"/><path class="cls-4" d="M90.43 11.57a59.39 59.39 0 0 1 3.35 5.54q.47 1 .89 2.12c11.06 32.26-19 36-52.93 19.26-9.92-4.91-14.89-9.73-12.38-12q2.29-2 4.68-3.93 1-.77 2-1.52C30.5 25.78 57.2 39.1 75.15 40.57c24.35 2 23.57-17.84 15-29.31l.24.29"/><path class="cls-5" d="M98.36 41.54q0 1.55-.06 3.13c-3.89 56.59-78.13 20.82-87.12 10.54-.92-1-1.88-2.61-1.29-4.13.88-1.62 2.07-3.77 3-5.35l1.36-2.1c-5 8.92 40.65 28.36 63 23.4C92.61 63.65 99.5 51.85 97.81 32l.07.53c.22 2.71.45 6.34.48 9.06"/><path class="cls-4" d="M93.56 71.16Q93 73 92.31 74.8c-20.62 50.41-85.05 8-87.18 4a5.23 5.23 0 0 1-.48-1.31c-.08-1.09-.22-2.49-.25-3.57s0-2.25.06-3.39c1.73 10.93 62.68 39.87 84.32 8.4 4.73-6.88 6.5-14.11 7.55-18.43l-.12.63a98.46 98.46 0 0 1-2.65 10"/><path class="cls-5" d="M79.85 97.22q-1.71 2.1-3.53 3.93c-3.51 3.26-10.83 10-25.8 9.58-.25 0-25.34-1.23-35.39-11.48q-.8-.83-1.54-1.69c-.89-1.13-2.09-2.63-2.91-3.8 4.85 6.88 51.87 31 74.16-3.64l-.38.64a64.8 64.8 0 0 1-4.62 6.45"/><path class="cls-4" d="M63.47 110.5a37.9 37.9 0 0 1-6.14 2.25q-1.51.41-3 .68C40.86 115.26 30 110.18 24.78 107c.86.5 21.33 12.08 40.29 2.7l-.45.24-1.16.56"/><ellipse class="cls-6" cx="53.88" cy="28.33" rx="22.14" ry="10.14" transform="rotate(-35.41 53.88 28.332)"/><path class="cls-6" d="M13.44 48C32.31 17.9 71.65.59 87 10.2c4.63 2.9 8 8.83 10 16.53-1.83-8.82-5.4-15.65-10.49-18.84-15.36-9.61-54.69 7.7-73.56 37.84-8 12.8-10.3 25.53-7.38 36.68C3.48 71.84 6 60 13.44 48z"/><circle class="cls-4" cx="27.71" cy="44.89" r="3.69" transform="rotate(-58 27.908 44.89)"/><circle class="cls-5" cx="14.53" cy="69.71" r="3.69" transform="rotate(-58 14.545 69.525)"/><circle class="cls-4" cx="34.48" cy="79.86" r="3.69" transform="rotate(-58.24 34.47 79.853)"/><circle class="cls-5" cx="59.26" cy="84.25" r="3.69" transform="rotate(-57.95 59.272 84.25)"/><circle class="cls-4" cx="81.56" cy="79.02" r="3.69" transform="rotate(-58 81.97 78.925)"/><circle class="cls-5" cx="49.82" cy="53.8" r="3.69" transform="rotate(-57.95 49.826 53.795)"/><circle class="cls-4" cx="72.08" cy="57.37" r="3.69" transform="rotate(-58.24 72.071 57.366)"/><circle class="cls-5" cx="89.44" cy="52.47" r="3.69" transform="rotate(-57.95 89.457 52.473)"/><path d="M95 19.67C97 37 93.1 59.91 81.71 78.11c-15 23.89-38.42 29.77-60 16.24C13.42 89.18 7.6 82.53 4.38 75c.69 12.7 7.62 24 20.16 31.83 21.61 13.53 45.08 7.65 60-16.24C99 67.57 101.45 37.07 95 19.67z" style="mix-blend-mode:multiply" fill="#74cac0" opacity=".5"/></g></g></svg>