<svg xmlns="http://www.w3.org/2000/svg" xmlns:xlink="http://www.w3.org/1999/xlink" viewBox="0 0 87.815 129.546"><path d="M-246.272 11.306c-15.884-9.182-55.497 10.464-73.942 42.373-14.617 25.286-8.951 49.429 13.405 62.352s46.104 5.784 60.721-19.503c18.446-31.908 15.7-76.04-.184-85.222z" fill="#262262"/><path d="M-245.684 7.891c-15.358-9.613-54.693 7.696-73.563 37.842-14.954 23.889-9.984 47.567 11.63 61.097s45.084 7.654 60.038-16.235c18.871-30.146 17.252-73.091 1.895-82.704z" fill="#8dd2cc"/><path d="M-245.458 8.075c1.047.825 1.075 1.531.066 1.715-2.872.525-11.162-3.228-10.698-4.322.119-.28.754-.302 1.265-.271 1.082.135 2.533.268 3.601.487l1.454.372c-1.144-.328-1.288-.248-1.44-.162.174.756 5.119 2.677 5.569 2.164-.038-.112-.053-.154-.291-.309.142.097.338.219.474.326M-233.895 42.484l-.031 1.985c.034-1.052.05-2.095.047-3.127-.082-2.72-.291-6.344-.529-9.055.054.754.101 1.762.088 2.518.384 4.549.443 5.249.425 7.679M-239.091 72.594l-.758 2.202c.443-1.205.86-2.417 1.252-3.633a98.527 98.527 0 0 0 2.653-10.036c-.243.869-.606 2.02-.951 2.854-1.143 5.182-1.319 5.979-2.196 8.613M-254.291 99.613l-1.336 1.446a56.138 56.138 0 0 0 3.506-3.95 64.766 64.766 0 0 0 4.587-6.468c-.548.742-1.327 1.7-1.971 2.361-2.109 3.262-2.899 4.483-4.786 6.611M-276.231 113.083l-1.639.345a36.74 36.74 0 0 0 3.037-.683 37.943 37.943 0 0 0 7.298-2.81 26.68 26.68 0 0 1-2.512.908c-2.792 1.229-3.836 1.689-6.184 2.24M-273.024 8.366c-1.453.571-3.401 1.306-4.834 1.926l.154-.064a73.073 73.073 0 0 1 6.846-2.595l-.148.045c-.668.217-1.341.446-2.018.688M-298.115 22.561a99.207 99.207 0 0 0-4.679 3.926l.145-.122a99.016 99.016 0 0 1 6.662-5.428l-.152.107a98.886 98.886 0 0 0-1.976 1.517M-327.763 73.923c.073 1.064.132 2.485.254 3.544l-.013-.144a39.294 39.294 0 0 1-.17-6.945l-.014.15a40.202 40.202 0 0 0-.057 3.395M-318.368 97.787c.495.569 1.01 1.128 1.543 1.679l-.107-.111a40.886 40.886 0 0 1-4.446-5.479l.082.122c.857 1.153 1.994 2.698 2.928 3.789" fill="#f6f9e5"/><path d="M-242.925 10.145c5.434 5.656 5.596 14.376-5.322 14.373-12.007-.004-33.047-10.651-30.123-13.737.012-.012.287-.299.748-.501 1.45-.578 3.374-1.376 4.843-1.902a69.524 69.524 0 0 1 2.021-.678c-3.473 1.263 1.456 4.862 7.857 7.608 15.09 6.472 23.978 4.05 21.554-2.353-1.104-2.918-3.454-4.475-4.339-5.062.868.624 2.02 1.481 2.761 2.252" fill="#f37375"/><path d="M-241.725 11.565c1.108 1.597 2.445 3.825 3.351 5.544.314.681.612 1.387.894 2.117 11.056 32.258-19.024 36.043-52.933 19.265-9.917-4.907-14.891-9.731-12.379-12.005a99.305 99.305 0 0 1 6.656-5.444c-5.519 4.732 21.177 18.057 39.13 19.531 24.347 1.999 23.57-17.842 15.033-29.313l.236.287a.057.057 0 0 0 .012.018" fill="#f6f9e5"/><path d="M-233.796 41.544a89.15 89.15 0 0 1-.062 3.127c-3.892 56.587-78.126 20.815-87.119 10.544-.915-1.046-1.882-2.612-1.29-4.133.881-1.618 2.065-3.771 3.02-5.347l1.364-2.104c-5.031 8.918 40.651 28.358 63.048 23.404 15.288-3.382 22.181-15.185 20.486-35.081l.069.534c.224 2.71.453 6.335.484 9.056" fill="#f37375"/><path d="M-238.598 71.162a95.028 95.028 0 0 1-1.252 3.633c-20.615 50.408-85.051 8.015-87.183 3.979a5.219 5.219 0 0 1-.476-1.308c-.08-1.063-.223-2.479-.254-3.544a40.202 40.202 0 0 1 .057-3.395c1.73 10.929 62.683 39.873 84.324 8.402 4.734-6.883 6.499-14.112 7.553-18.431l-.116.627a98.476 98.476 0 0 1-2.653 10.037" fill="#f6f9e5"/><path d="M-252.311 97.221a55.992 55.992 0 0 1-3.526 3.932c-3.514 3.261-10.827 10.047-25.798 9.584-.249-.008-25.341-1.23-35.392-11.477a43.097 43.097 0 0 1-1.535-1.686c-.893-1.125-2.085-2.627-2.91-3.803 4.847 6.879 51.87 30.961 74.16-3.636l-.381.641a64.57 64.57 0 0 1-4.618 6.445" fill="#f37375"/><path d="M-268.692 110.497a37.943 37.943 0 0 1-6.142 2.248 36.65 36.65 0 0 1-3.037.683c-13.432 1.833-24.253-3.248-29.508-6.439.862.498 21.327 12.084 40.292 2.702l-.45.244c-.383.194-.768.382-1.155.562" fill="#f6f9e5"/><ellipse transform="rotate(-35.41 -278.293 28.334)" cx="-278.281" cy="28.332" rx="22.144" ry="10.143" opacity=".3" fill="#fff"/><path d="M-318.716 48.046C-299.845 17.9-260.51.59-245.153 10.204c4.631 2.899 8.01 8.831 9.957 16.525-1.828-8.816-5.404-15.655-10.489-18.838-15.358-9.613-54.693 7.696-73.563 37.842-8.012 12.799-10.298 25.535-7.376 36.684-2.053-10.581.446-22.45 7.908-34.371z" opacity=".3" fill="#fff"/><ellipse transform="rotate(-58.236 -304.455 44.893)" cx="-304.447" cy="44.892" rx="3.691" ry="3.691" fill="#f6f9e5"/><ellipse transform="rotate(-57.954 -317.639 69.707)" cx="-317.628" cy="69.706" rx="3.691" ry="3.691" fill="#f37375"/><ellipse transform="rotate(-58.236 -297.693 79.862)" cx="-297.684" cy="79.86" rx="3.691" ry="3.691" fill="#f6f9e5"/><ellipse transform="rotate(-57.954 -272.907 84.249)" cx="-272.897" cy="84.247" rx="3.691" ry="3.691" fill="#f37375"/><ellipse transform="rotate(-58.236 -250.606 79.023)" cx="-250.599" cy="79.021" rx="3.691" ry="3.691" fill="#f6f9e5"/><ellipse transform="rotate(-57.954 -282.346 53.798)" cx="-282.336" cy="53.797" rx="3.691" ry="3.691" fill="#f37375"/><ellipse transform="rotate(-58.236 -260.085 57.366)" cx="-260.08" cy="57.366" rx="3.691" ry="3.691" fill="#f6f9e5"/><ellipse transform="rotate(-57.954 -242.724 52.474)" cx="-242.716" cy="52.473" rx="3.691" ry="3.691" fill="#f37375"/><path d="M-237.194 19.668c2.058 17.379-1.864 40.242-13.257 58.442-14.954 23.889-38.424 29.765-60.038 16.235-8.253-5.166-14.07-11.815-17.288-19.387.691 12.746 7.615 24.02 20.16 31.872 21.614 13.53 45.084 7.654 60.038-16.235 14.416-23.029 16.873-53.525 10.385-70.927z" opacity=".5" fill="#74cac0"/><path d="M-192.824 13.95c-13.088 6.416-17.656 41.246-4.766 67.537 10.214 20.834 28.651 27.78 47.07 18.75s24.219-27.859 14.005-48.693c-12.89-26.292-43.221-44.011-56.309-37.594z" fill="#262262"/><g><path d="M-195.741 7.748c-12.962 6.329-17.829 40.195-5.406 65.638 9.845 20.163 27.936 26.775 46.179 17.868s24.155-27.239 14.311-47.402c-12.425-25.443-42.122-42.433-55.084-36.104z" fill="#eea7bb"/><path d="M-192.491 6.757l.186-.091c-1.242.215-2.393.573-3.436 1.082.982-.479 2.071-.807 3.25-.991M-174.855 11.071l.957-.467a48.923 48.923 0 0 0-6.285-2.562l-.722.352a48.32 48.32 0 0 1 6.05 2.677M-185.734 7.033l.515-.251a26.728 26.728 0 0 0-1.008-.151l-1.771-.171-.392.191c.858.074 1.744.202 2.656.382M-152.389 29.516l1.626-.794a78.656 78.656 0 0 0-5.872-6.08l-1.49.728a82.425 82.425 0 0 1 5.736 6.146M-139.155 53.029l1.714-.837a45.57 45.57 0 0 0-.733-2.352 51.01 51.01 0 0 0-2.159-5.308l-.394.193-.481.235-.878.429a52.264 52.264 0 0 1 2.931 7.64M-145.595 38.916l1.736-.848a71.67 71.67 0 0 0-2.388-3.598l-1.706.833a76.142 76.142 0 0 1 2.358 3.613M-140.652 77.781l1.039-.507c.136-.247.268-.495.397-.745a64.606 64.606 0 0 0 1.935-4.753c.062-.203.123-.406.181-.611l-1.296.633a28.098 28.098 0 0 1-2.256 5.983M-154.969 91.254a41.195 41.195 0 0 0 5.099-2.947l.01-.007-.307.15a36.622 36.622 0 0 1-4.802 2.804M-145.765 84.776l.615-.3a32.075 32.075 0 0 0 2.33-2.512l-.781.381a28.89 28.89 0 0 1-2.164 2.431M-198.707 9.792c.934-.847 1.924-1.534 2.966-2.043-.922.563-2.132 1.356-2.966 2.043M-206.822 26.259c-.035.156-.069.312-.102.469l.003-.001a49.52 49.52 0 0 1 1.844-6.532l-.002.001c-.579 1.802-1.306 4.222-1.743 6.063M-202.473 14.563c-.17.289-.337.585-.501.888l.001-.001c.459-.849.944-1.647 1.455-2.389l-.001.001-.954 1.501M-207.908 49.184c.275 2.084.676 4.86 1.044 6.93l.004-.002a79.026 79.026 0 0 1-1.183-8.37l-.004.002c.042.479.088.959.139 1.44M-197.955 79.028a45.19 45.19 0 0 0 1.404 2.025l.005-.002a49.47 49.47 0 0 1-4.262-6.992l-.005.002c.821 1.51 1.935 3.516 2.858 4.967M-204.365 65.537l.625 1.769.005-.002a70.223 70.223 0 0 1-1.368-4.096.042.042 0 0 0-.005.002c.234.779.482 1.555.743 2.327M-181.207 93.222a64.98 64.98 0 0 0 4.938 1.398c.276.052.554.101.832.145l.003-.001a29.136 29.136 0 0 1-6.362-1.776.012.012 0 0 0-.003.002c.196.079.394.156.592.232M-160.429 93.462a91.725 91.725 0 0 0 5.46-2.208 41.198 41.198 0 0 1-5.47 2.212h-.001l.011-.004M-166.352 94.828l.002-.001c-1.146.16-2.285.257-3.413.292l-.002.001c1.024-.075 2.393-.162 3.413-.292" fill="#7fcaa8"/><path d="M-192.305 6.666l-3.257 1.59-3.145 1.536c.856-.659 2.025-1.513 2.966-2.043 1.043-.51 2.194-.868 3.436-1.083" fill="#f6f9e5"/><path d="M-174.33 10.395l.432.208-.003.001-16.798 8.202-16.225 7.922c.033-.157.067-.313.102-.469a107.81 107.81 0 0 1 1.743-6.063l12.23-5.972 12.663-6.183.002-.001a49.047 49.047 0 0 1 5.854 2.355" fill="#20b8b3"/><path d="M-186.228 6.63c.333.044.669.094 1.008.151l-.001.001-9.031 4.409-8.722 4.259c.164-.303.33-.599.501-.888l.955-1.501 6.642-3.243 6.877-3.358.001-.001 1.77.171" fill="#f37375"/><path d="M-155.585 23.637a78.383 78.383 0 0 1 4.822 5.085l-.004.002-28.536 13.933-27.561 13.457c-.351-2.073-.786-4.843-1.044-6.93a79.584 79.584 0 0 1-.139-1.44l25.257-12.332 26.15-12.768.004-.002c.353.328.703.659 1.051.995" fill="#f6f9e5"/><path d="M-138.174 49.84c.269.788.513 1.573.733 2.352l-.005.002-30.066 14.68-29.039 14.178a45.19 45.19 0 0 1-1.404-2.025 114.186 114.186 0 0 1-2.858-4.967l29.712-14.507 30.763-15.02.005-.002a51.114 51.114 0 0 1 2.159 5.309" fill="#20b8b3"/><path d="M-144.87 36.488c.344.522.681 1.049 1.01 1.581l-.005.002-30.458 14.871-29.418 14.363-.625-1.769a71.424 71.424 0 0 1-.743-2.327l28.917-14.119 29.939-14.618a.042.042 0 0 0 .005-.002c.471.665.93 1.337 1.378 2.018" fill="#f37375"/><path d="M-137.281 71.775a64.606 64.606 0 0 1-1.935 4.753c-.129.25-.261.499-.397.745l-.003.001-18.222 8.897-17.6 8.593a29.525 29.525 0 0 1-.832-.145 64.068 64.068 0 0 1-4.938-1.398 26.959 26.959 0 0 1-.593-.233l21.96-10.722 22.736-11.101a24.026 24.026 0 0 1-.176.61" fill="#f6f9e5"/><path d="M-149.87 88.307a41.069 41.069 0 0 1-5.099 2.947 91.055 91.055 0 0 1-5.471 2.212l5.198-2.538 5.381-2.628h.001a.036.036 0 0 0-.01.007" fill="#20b8b3"/><path d="M-145.15 84.476l-.002.001-10.784 5.266-10.416 5.086c-1.023.1-2.387.248-3.414.293l13.238-6.463 13.706-6.692.002-.001a32.05 32.05 0 0 1-2.33 2.51" fill="#f37375"/><g fill="#f6f9e5"><path d="M-202.619 34.508c.205 3.461-1.29 5.812-2.498 4.857-1.67-1.321-1.371-7.557.415-8.666 1.241-.444 1.977 2.011 2.083 3.809M-189.676 28.189c1.206 3.386-1.334 6.078-3.659 4.91-2.362-1.186-3.143-6.191-.608-7.652 1.962-.795 3.706 1.166 4.267 2.742M-176.082 21.551c2.042 2.434 1.093 4.471-1.086 4.37-3.386-.157-6.16-4.753-4.579-6.345.1-.1.263-.201.385-.273 1.758-.695 4.146.896 5.28 2.248M-167.763 17.49c2.077 1.598 2.976 3 2.048 3.193-1.84.382-8.14-4.446-7.171-5.496.023-.025.064-.046.092-.066.953-.303 3.516 1.203 5.031 2.369M-182.011 84.984c1.695 2.047 1.17 3.851-1.061 3.642-3.31-.311-6.531-4.306-4.595-5.7.063-.046.157-.093.224-.133 1.88-.743 4.308.834 5.432 2.191M-166.109 77.22c1.233 3.107-2.048 5.877-5.239 4.425-2.509-1.142-3.641-4.717-.417-6.506 2.552-1.087 4.923.234 5.656 2.081M-149.408 69.066c.398 3.506-2.68 6.178-4.916 4.267-1.935-1.654-1.801-5.628.891-7.145 2.436-1.012 3.82 1.073 4.025 2.878M-139.187 64.075c-.006 2.814-1.042 4.955-1.98 4.091-1.2-1.106-1.577-6.925.218-8.073 1.208-.412 1.766 2.133 1.762 3.982"/></g><path d="M-184.21 6.97c12.609 5.927 26.405 18.204 33.906 33.565 9.845 20.163 3.932 38.495-14.311 47.402-6.966 3.401-13.908 4.532-20.378 3.517 8.903 4.9 19.436 4.969 30.024-.201 18.243-8.907 24.155-27.239 14.311-47.402-9.491-19.436-29.061-33.937-43.552-36.881z" opacity=".5" fill="#f37375"/><ellipse transform="rotate(-3.48 -195.619 38.37)" cx="-195.656" cy="38.379" rx="8.075" ry="17.63" opacity=".3" fill="#fff"/><path d="M-199.362 74.001c-12.423-25.444-7.555-59.31 5.406-65.638 3.908-1.908 9.339-1.694 15.358.231-6.726-2.477-12.853-2.94-17.145-.845-12.962 6.329-17.829 40.195-5.406 65.638 5.274 10.802 12.917 17.71 21.68 20.43-8.013-3.068-14.98-9.754-19.893-19.816z" opacity=".3" fill="#fff"/></g><path d="M-63.798 12.172c-14.756.024-34.383 29.681-34.335 59.324.038 23.491 13.725 37.999 34.494 37.965s34.408-14.586 34.37-38.077c-.049-29.644-19.773-59.236-34.529-59.212z" fill="#262262"/><g><path d="M-63.082 4.312c-14.52 0-33.88 28.484-33.88 56.987 0 22.587 13.445 36.558 33.88 36.558s33.88-13.971 33.88-36.558c0-28.502-19.36-56.987-33.88-56.987z" fill="#20b8b3"/><defs><path id="a" d="M-63.082 4.312c-14.52 0-33.88 28.484-33.88 56.987 0 22.587 13.445 36.558 33.88 36.558s33.88-13.971 33.88-36.558c0-28.502-19.36-56.987-33.88-56.987z"/></defs><clipPath id="b"><use xlink:href="#a" overflow="visible"/></clipPath><g clip-path="url(#b)"><path d="M-59.646 4.515a12.918 12.918 0 0 1 0 0M-53.626 7.418l-.241-.162-1.925-1.157c.72.389 1.443.829 2.166 1.319M-40.8 21.442c-1.118-1.651-2.649-3.827-3.853-5.417a49.405 49.405 0 0 0-4.534-4.991 39.496 39.496 0 0 0-1.414-1.285c3.438 2.974 6.793 6.975 9.801 11.693M-28.777 62.264h.001a67.088 67.088 0 0 0-.417-7.951h-.001a67.102 67.102 0 0 1 .417 7.951M-29.928 72.638h.001a45.24 45.24 0 0 0 .647-3.534h-.001a44.323 44.323 0 0 1-.647 3.534M-39.3 89.965l1.132-1.144a30.74 30.74 0 0 0 3.277-4.175 33.454 33.454 0 0 0 2.617-4.829c.366-.828.704-1.679 1.015-2.554h-.001c-1.795 5.058-4.523 9.331-8.04 12.702M-66.518 4.515a12.918 12.918 0 0 1 3.436-.49c-1.037.099-2.421.255-3.436.49M-72.297 7.256a17.01 17.01 0 0 0-.242.162h.002c.722-.489 1.445-.93 2.166-1.319h-.001l-1.925 1.157M-76.977 11.035a109.824 109.824 0 0 0-4.534 4.991 142.737 142.737 0 0 0-3.854 5.417h.003c3.007-4.719 6.362-8.72 9.8-11.693h-.002l-1.413 1.285" fill="#f6f9e5"/><path d="M-92.759 36.539c-.335.92-.655 1.851-.959 2.791a88.08 88.08 0 0 1 1.584-4.451 74.65 74.65 0 0 0-.625 1.66" fill="#f5cb43"/><path d="M-97.391 61.733l.002.531h.005c-.002-.176-.002-.353-.002-.531 0-2.48.145-4.959.419-7.42h-.005c-.178 2.222-.397 5.19-.419 7.42M-96.238 72.638h.005a45.24 45.24 0 0 1-.647-3.534h-.005c.188 1.061.416 2.481.647 3.534M-93.891 79.817a33.605 33.605 0 0 0 2.617 4.829 68.74 68.74 0 0 0 3.277 4.175c.367.392.745.774 1.131 1.144h.004c-3.517-3.371-6.244-7.644-8.04-12.703h-.005l1.016 2.555" fill="#f6f9e5"/><path d="M-74.596 97.098l2.111.58a34.329 34.329 0 0 1-3.764-1.138l1.653.558M-53.868 7.256c.081.053.161.107.242.162h-18.912l.242-.162 1.925-1.157H-55.792l1.924 1.157" fill="#f37375"/><path d="M-49.187 11.035a49.416 49.416 0 0 1 4.534 4.991 142.737 142.737 0 0 1 3.854 5.417h-44.565c1.118-1.651 2.65-3.827 3.854-5.417a109.824 109.824 0 0 1 4.534-4.991l1.414-1.285H-50.6c.472.409.944.837 1.413 1.285" fill="#f6f9e5"/><path d="M-92.258 37.571c-.718 2.004-1.677 4.173-2.04 4.335-.063-.116-.157-.291.58-2.575a81.061 81.061 0 0 1 1.584-4.451c.655-1.662.984-2.345 1.176-2.436.247.43-.789 3.701-1.3 5.127M-83.739 37.571c-.997 3.357-3.507 5.422-4.553 3.744-1.274-2.043.976-8.606 3.583-8.871 1.648.176 1.553 3.164.97 5.127M-68.586 37.571c-.543 3.751-4.381 5.706-6.319 3.218-1.965-2.523-.289-8.106 3.252-8.346 2.572.177 3.351 3.165 3.067 5.128M-51.175 37.571c.233 3.618-2.756 5.58-5.331 3.499-3.246-2.624-2.145-8.183.918-8.603.103-.014.241-.016.345-.023 2.589.174 3.938 3.103 4.068 5.127M-38.213 37.571c.79 3.239-.371 5.233-2.302 3.949-3.059-2.033-3.8-8.595-1.663-9.054.067-.014.158-.016.226-.023 1.759.174 3.245 3.103 3.739 5.128M-33.039 37.571c.537 1.546 1.39 4.164 1.063 4.335-.932-.347-4.011-9.102-3.328-9.462.543.213 2.09 4.625 2.265 5.127" fill="#f5cb43"/><path d="M-28.773 61.733l-.002.531h-68.613l-.002-.531c.074-2.228.221-5.199.419-7.42H-29.19c.272 2.461.417 4.94.417 7.42" fill="#8dd2cc"/><path d="M-29.926 72.638h-66.311c-.2-1.059-.489-2.468-.647-3.534h67.606a45.71 45.71 0 0 1-.648 3.534" fill="#f37375"/><path d="M-32.273 79.817a33.605 33.605 0 0 1-2.617 4.829 30.818 30.818 0 0 1-3.277 4.175l-1.131 1.144h-47.566a29.765 29.765 0 0 1-1.131-1.144 68.262 68.262 0 0 1-3.277-4.175 33.454 33.454 0 0 1-2.617-4.829l-1.015-2.554h63.649a38.036 38.036 0 0 1-1.018 2.554" fill="#f6f9e5"/><path d="M-73.673 97.28c1.178.354 1.349.392 3.451.859a27.412 27.412 0 0 1-2.264-.461l-2.111-.58-1.653-.558c-1.548-.579-1.876-.783-1.909-.805a.03.03 0 0 0 .002-.009c.116.023.309.096 1.028.366.969.363 2.113.785 3.456 1.188M-70.58 97.28c.643.28 1.051.446 1.5.622.488.191.488.191.509.237-1.123.107-6.676-1.706-6.417-2.339.024-.058.129-.067.213-.074.733.046 1.398.336 4.195 1.554M-65.08 97.28c.629 1.221-.582.841-1.1.678-1.924-.604-2.834-1.697-2.134-2.103.187-.109.396-.119.597-.128 1.234.054 2.261.822 2.637 1.553M-58.76 97.28c-.03.02-2.927 1.702-2.709.316.134-.853 1.221-1.807 2.625-1.869 1.113.052 1.079.718.408 1.306-.091.08-.222.178-.324.247M-54.055 97.28c-1.592.544-3.395.884-3.667.859.125-.133 4.355-1.931 4.396-1.948 1.078-.429 1.493-.454 1.67-.465.107.008.431.033.06.366-.305.273-1.112.728-2.459 1.188M-52.177 97.28a32.037 32.037 0 0 1-3.767.859c1.385-.383 2.798-.662 4.167-1.107a64.996 64.996 0 0 0 2.659-.94c.731-.272.93-.343 1.056-.366-.086.119-1.82.891-4.115 1.554" fill="#f37375"/></g><path d="M-52.307 8.702c8.788 10.93 15.846 28.129 15.846 45.337 0 22.587-13.445 36.558-33.88 36.558-7.803 0-14.582-2.043-19.987-5.819 5.889 8.365 15.387 13.079 27.247 13.079 20.436 0 33.88-13.971 33.88-36.558-.001-21.773-11.299-43.535-23.106-52.597z" opacity=".5" fill="#20b8b3"/><ellipse transform="rotate(-67.456 -76.532 32.058)" cx="-76.533" cy="32.058" rx="17.747" ry="8.128" opacity=".3" fill="#fff"/><path d="M-95.618 62.644c0-28.503 19.36-56.987 33.88-56.987 4.378 0 9.196 2.593 13.791 6.992-4.99-5.212-10.328-8.336-15.135-8.336-14.52 0-33.88 28.484-33.88 56.987 0 12.101 3.862 21.725 10.588 28.056-5.895-6.316-9.244-15.441-9.244-26.712z" opacity=".3" fill="#fff"/></g><path d="M69.657 8.198C55.746 2.854 25.705 25.645 14.203 55.581c-9.114 23.723-1.872 43.345 17.706 50.867 19.578 7.522 38.096-2.203 47.21-25.926 11.502-29.936 4.449-66.979-9.462-72.324z" fill="#262262"/><g><path d="M60.447 4.48C45.752-.806 15.788 20.974 5.411 49.821c-8.223 22.86.298 41.895 20.981 49.334S65.768 97.35 73.991 74.49C84.367 45.643 75.143 9.766 60.447 4.48z" fill="#f37375"/><path d="M26.495 99.192C6.102 91.857-2.23 72.893 5.993 50.031 16.37 21.184 46.06-.695 60.549 4.517 46.512-.532 17.426 21.563 7.049 50.411c-8.223 22.862-.31 41.675 19.446 48.781" fill="#faad31"/><path d="M26.495 99.192C7.524 92.368.127 73.741 8.351 50.879 18.727 22.032 47.07-.332 60.549 4.517 47.943-.017 20.764 22.764 10.388 51.612 2.164 74.474 8.753 92.81 26.495 99.192" fill="#e75757"/><path d="M26.495 99.192C9.999 93.258 4.23 75.217 12.453 52.355 22.83 23.507 48.828.301 60.549 4.517 50.061.744 25.707 24.542 15.331 53.39c-8.224 22.862-3.597 40.492 11.164 45.802" fill="#faad31"/><path d="M26.495 99.192C13.37 94.471 9.819 77.227 18.043 54.366 28.419 25.518 51.224 1.163 60.549 4.517c-7.79-2.802-28.546 22.29-38.923 51.138-8.223 22.861-6.094 39.593 4.869 43.537" fill="#e75757"/><path d="M26.495 99.192c-9.006-3.24-9.847-19.508-1.623-42.37C35.248 27.974 54.15 2.215 60.549 4.517c-4.616-1.66-21.141 24.954-31.517 53.801-8.223 22.862-9.034 38.537-2.537 40.874" fill="#faad31"/><path d="M26.495 99.192c-4.291-1.544-2.03-16.696 6.194-39.558C43.065 30.786 57.5 3.42 60.549 4.517c-1.08-.389-12.89 27.921-23.267 56.769-8.223 22.862-12.308 37.359-10.787 37.906" fill="#e75757"/><path d="M26.495 99.192c.852.306 6.498-13.629 14.721-36.491C51.592 33.853 61.155 4.735 60.549 4.517c2.581.928-4.347 30.994-14.723 59.842-8.223 22.862-15.699 36.139-19.331 34.833" fill="#faad31"/><path d="M26.495 99.192c5.86 2.108 14.8-10.643 23.024-33.504C59.895 36.84 64.713 6.015 60.549 4.517 66.515 6.663 64.1 38.352 53.724 67.2 45.5 90.062 34.89 102.212 26.495 99.192" fill="#e75757"/><path d="M26.495 99.192c10.387 3.736 22.307-7.943 30.53-30.804C67.401 39.54 67.93 7.172 60.549 4.517c8.954 3.221 10.523 36.343.146 65.191-8.223 22.862-21.599 34.016-34.2 29.484" fill="#faad31"/><path d="M26.495 99.192c14.281 5.137 28.764-5.62 36.987-28.482C73.859 41.862 70.698 8.167 60.55 4.517c11.429 4.111 16.298 38.42 5.921 67.268-8.224 22.862-23.892 33.192-39.976 27.407" fill="#e75757"/><path d="M26.495 99.192c17.387 6.254 33.912-3.768 42.135-26.63 10.377-28.848 4.274-63.601-8.08-68.045C73.832 9.295 81.172 44.493 70.795 73.34c-8.224 22.862-25.608 32.575-44.3 25.852" fill="#faad31"/><path d="M26.495 99.192c19.547 7.031 37.494-2.48 45.717-25.341C82.588 45.003 74.439 9.513 60.549 4.517c14.402 5.181 23.236 40.916 12.859 69.764-8.223 22.861-26.645 32.202-46.913 24.911" fill="#e75757"/><path d="M69.754 12.845c4.915 14.262 5.797 34.238-.468 51.654-8.223 22.86-26.916 32.105-47.599 24.666-7.897-2.841-14.014-7.376-18.11-13.166 2.915 10.61 10.812 18.838 22.815 23.156 20.683 7.44 39.376-1.806 47.599-24.666 7.927-22.036 4.414-48.174-4.237-61.644z" opacity=".5" fill="#f37375"/><ellipse transform="rotate(-47.67 36.733 27.664)" cx="36.733" cy="27.664" rx="19.088" ry="8.743" opacity=".3" fill="#fff"/><path d="M6.282 51.672C16.659 22.824 46.623 1.044 61.319 6.33c4.431 1.594 8.363 5.972 11.412 12.097C69.578 11.335 65.313 6.23 60.447 4.48 45.752-.806 15.788 20.974 5.411 49.821c-4.405 12.247-4 23.393.502 32.25-3.667-8.537-3.734-18.991.369-30.399z" opacity=".3" fill="#fff"/></g></svg>