<svg xmlns="http://www.w3.org/2000/svg" viewBox="0 0 75.42 129.55"><defs><style>.cls-6{fill:#f6f9e5}.cls-7{fill:#f5cb43}.cls-8{fill:#f37375}.cls-11{fill:#fff;opacity:.3}</style><clipPath id="clip-path"><path d="M38.39 4.31c-14.52 0-33.88 28.48-33.88 57 0 22.58 13.49 36.55 33.88 36.55s33.88-14 33.88-36.56c0-28.5-19.36-56.99-33.88-56.99z" fill="none"/></clipPath></defs><g style="isolation:isolate"><g id="Layer_1" data-name="Layer 1"><path d="M37.67 12.17C22.92 12.2 3.29 41.85 3.34 71.5c0 23.49 13.73 38 34.49 38S72.24 94.87 72.2 71.38c-.05-29.64-19.77-59.23-34.53-59.21z" fill="#262262"/><path d="M38.39 4.31c-14.52 0-33.88 28.48-33.88 57 0 22.58 13.49 36.55 33.88 36.55s33.88-14 33.88-36.56c0-28.5-19.36-56.99-33.88-56.99z" fill="#20b8b3"/><g clip-path="url(#clip-path)"><path class="cls-6" d="M41.82 4.51A12.9 12.9 0 0 0 38.39 4a12.9 12.9 0 0 1 3.44.49M47.84 7.42l-.24-.16-1.92-1.16q1.08.58 2.17 1.32M60.67 21.44A223.3 223.3 0 0 0 56.82 16a49.45 49.45 0 0 0-4.53-5q-.7-.67-1.41-1.29a53.58 53.58 0 0 1 9.8 11.69M72.69 62.26v-.53a67.12 67.12 0 0 0-.42-7.42 67.14 67.14 0 0 1 .42 7.42v.53M71.54 72.64q.39-1.72.65-3.53-.26 1.81-.65 3.53M62.17 90l1.13-1.14a30.76 30.76 0 0 0 3.28-4.18 33.52 33.52 0 0 0 2.62-4.83q.55-1.24 1-2.55a32.39 32.39 0 0 1-8 12.7M35 4.51A12.9 12.9 0 0 1 38.39 4a29.1 29.1 0 0 0-3.39.51M29.17 7.26l-.24.16A25.36 25.36 0 0 1 31.1 6.1l-1.93 1.16M24.49 11c-1.41 1.45-3.22 3.45-4.53 5s-2.74 3.76-3.85 5.42a53.58 53.58 0 0 1 9.8-11.69L24.49 11"/><path class="cls-7" d="M8.71 36.54q-.5 1.38-1 2.79c.5-1.53 1-2.95 1.58-4.45q-.32.82-.62 1.66"/><path class="cls-6" d="M4.08 61.73v0a67.14 67.14 0 0 1 .42-7.42c-.18 2.22-.4 5.19-.42 7.42M5.23 72.64q-.39-1.72-.65-3.53c.19 1.06.42 2.48.65 3.53M7.58 79.82a33.52 33.52 0 0 0 2.62 4.83c.93 1.29 2.24 3 3.28 4.18q.55.59 1.13 1.14a32.39 32.39 0 0 1-8-12.7l1 2.55"/><path class="cls-8" d="M26.87 97.1l2.11.58a34.29 34.29 0 0 1-3.76-1.14l1.65.56M47.6 7.26l.24.16H28.93l.24-.16L31.1 6.1h14.58l1.92 1.16"/><path class="cls-6" d="M52.28 11a49.45 49.45 0 0 1 4.53 5c1.19 1.6 2.74 3.76 3.85 5.42H16.11c1.11-1.63 2.65-3.8 3.89-5.42s3.12-3.54 4.53-5l1.41-1.29h25q.71.61 1.41 1.29"/><path class="cls-7" d="M9.21 37.57c-.72 2-1.68 4.17-2 4.33-.06-.12-.16-.29.58-2.58q.46-1.41 1-2.79.3-.84.62-1.66c.65-1.66 1-2.34 1.18-2.44.25.43-.79 3.7-1.3 5.13M17.73 37.57c-1 3.36-3.51 5.42-4.55 3.74-1.27-2 1-8.61 3.58-8.87 1.65.18 1.55 3.16 1 5.13M32.88 37.57c-.54 3.75-4.38 5.71-6.32 3.22s-.29-8.11 3.25-8.35c2.57.18 3.35 3.16 3.07 5.13M50.3 37.57c.23 3.62-2.76 5.58-5.33 3.5-3.25-2.62-2.14-8.18.92-8.6h.34c2.59.17 3.94 3.1 4.07 5.13M63.26 37.57c.79 3.24-.37 5.23-2.3 3.95-3.06-2-3.8-8.59-1.66-9.05h.23c1.76.17 3.24 3.1 3.74 5.13M68.43 37.57c.54 1.55 1.39 4.16 1.06 4.33-.93-.35-4-9.1-3.33-9.46.54.21 2.09 4.63 2.26 5.13"/><path d="M72.7 61.73v.53H4.08v-.53c.07-2.23.22-5.2.42-7.42h67.78a67.12 67.12 0 0 1 .42 7.42" fill="#8dd2cc"/><path class="cls-8" d="M71.54 72.64H5.23c-.2-1.06-.49-2.47-.65-3.53h67.61q-.26 1.81-.65 3.53"/><path class="cls-6" d="M69.2 79.82a33.52 33.52 0 0 1-2.62 4.83 30.76 30.76 0 0 1-3.28 4.18L62.17 90H14.61q-.58-.56-1.13-1.14c-1-1.21-2.35-2.88-3.28-4.18a33.52 33.52 0 0 1-2.62-4.83l-1-2.55h63.63q-.47 1.31-1 2.55"/><path class="cls-8" d="M27.8 97.28c1.18.35 1.35.39 3.45.86-.18 0-1.09-.18-2.26-.46l-2.11-.58-1.65-.56a12.57 12.57 0 0 1-1.91-.8 10.33 10.33 0 0 1 1 .37c1 .36 2.11.78 3.45 1.19M30.89 97.28c.64.28 1.05.45 1.5.62s.49.19.51.24c-1.12.11-6.68-1.71-6.42-2.34 0-.06.13-.07.21-.07.73 0 1.4.34 4.2 1.55M36.39 97.28c.63 1.22-.58.84-1.1.68-1.92-.6-2.83-1.7-2.13-2.1a1.26 1.26 0 0 1 .6-.13 3.23 3.23 0 0 1 2.64 1.55M42.71 97.28S39.78 99 40 97.6a2.73 2.73 0 0 1 2.63-1.87c1.11.05 1.08.72.41 1.31a3.67 3.67 0 0 1-.32.25M47.42 97.28a17.3 17.3 0 0 1-3.67.86c.12-.13 4.35-1.93 4.4-1.95a5.14 5.14 0 0 1 1.67-.46c.11 0 .43 0 .06.37a8.12 8.12 0 0 1-2.46 1.19M49.29 97.28a32.22 32.22 0 0 1-3.77.86c1.39-.38 2.8-.66 4.17-1.11 1-.33 1.93-.67 2.66-.94a8.85 8.85 0 0 1 1.06-.37 20.37 20.37 0 0 1-4.12 1.55"/></g><path d="M49.16 8.7A76 76 0 0 1 65 54c0 22.63-13.44 36.6-33.87 36.6-7.8 0-14.58-2-20-5.82 5.87 8.36 15.4 13.08 27.26 13.08 20.44 0 33.88-14 33.88-36.56 0-21.77-11.27-43.54-23.11-52.6z" style="mix-blend-mode:multiply" opacity=".5" fill="#20b8b3"/><ellipse class="cls-11" cx="24.94" cy="32.06" rx="17.75" ry="8.13" transform="rotate(-67.46 24.937 32.056)"/><path class="cls-11" d="M5.85 62.64c0-28.5 19.36-57 33.88-57 4.38 0 9.2 2.59 13.79 7-5-5.21-10.33-8.34-15.14-8.34-14.52 0-33.88 28.48-33.88 57C4.51 73.4 8.37 83 15.1 89.36 9.2 83 5.85 73.92 5.85 62.64z"/></g></g></svg>