<svg xmlns="http://www.w3.org/2000/svg" viewBox="0 0 100.227 129.546"><path d="M19.215 22.197c-15.622 7.59-21.561 48.357-6.661 79.022 11.807 24.301 33.575 32.304 55.562 21.621s29.148-32.742 17.34-57.043c-14.899-30.665-50.619-51.19-66.241-43.6z" fill="#262262"/><path d="M26.77 4.428C9.372 10.752-1.098 54.199 11.637 89.236c10.092 27.765 32.444 39.084 56.931 30.183s34.354-31.93 24.261-59.696C80.094 24.687 44.169-1.896 26.77 4.428z" fill="#f5cb43"/><path d="M29.683 3.698c4.479-.607 7.286.507 6.258 2.484-1.586 3.051-15.221 8.383-16.88 5.602-.473-.793.224-2.083 2.073-3.833l.638-.557c1.029-.736 2.404-1.724 3.513-2.329-3.667 1.943-3.81 3.192-3.039 3.524 1.112.478 10.978-2.163 9.718-4.396-.26-.461-2.051-.865-5.196.236a15.188 15.188 0 0 1 2.915-.731" fill="#f6f9e5"/><path d="M46.057 6.853c13.71 6.368-.74 15.164-11.439 19.358-11.173 4.379-26.546 7.23-23.104-2.863.564-1.333 1.285-3.125 1.904-4.432l.999-1.969c-4.184 8.698 6.273 7.649 16.498 4.108C41.059 17.542 51.724 10.181 42.4 5.538c-.944-.47-2.228-.842-3.166-1.113 2.196.565 4.482 1.381 6.823 2.428" fill="#f37375"/><path d="M61.545 16.567a94.684 94.684 0 0 1 3.079 2.583c18.091 16.445-29.895 34.735-47.399 34.844-11.091.07-10.87-5.66-10.787-7.817l.01-.106c.302-2.535.741-5.912 1.152-8.429-1.857 16.342 34.363 5.349 49.495-6.673 7.56-6.006 7.656-11.91.284-17.547a86.035 86.035 0 0 1 4.166 3.145" fill="#f6f9e5"/><path d="M76.229 31.135a105.487 105.487 0 0 1 5.533 7.337c14.66 22.408-46.981 44.296-65.491 41.223-7.579-1.258-8.541-5.428-8.951-7.209a102.064 102.064 0 0 1-.673-4.915l-.398-4.384c3.247 20.838 59.748-2.506 69.617-15.638 6.38-8.489 1.827-14.428-.36-17.282.242.287.483.577.723.868" fill="#f37375"/><path d="M92.826 59.726a72.791 72.791 0 0 1 1.25 3.747c6.517 23.927-62.182 45.87-75.886 37.327-1.157-.721-1.795-1.394-2.73-2.878a52.33 52.33 0 0 1-.441-.851c-.947-2.017-2.162-4.73-3-6.796 9.792 19.655 75.495-9.515 79.582-27.307.885-3.85-.327-6.929-1.397-9.646a87.115 87.115 0 0 1 2.622 6.404" fill="#f6f9e5"/><path d="M96.664 83.183a44.799 44.799 0 0 1-.282 3.062c-2.949 19.021-52.552 37.568-66.331 28.969l-1.07-.792a43.348 43.348 0 0 1-4.609-4.092c12.02 10.213 72.105-7.094 72.289-32.806.111 1.927.111 3.815.003 5.659" fill="#f37375"/><path d="M90.589 102.56a37.697 37.697 0 0 1-1.94 2.758c-7.059 8.826-24.151 17.816-39.455 16.949l-1.817-.192c-1.579-.275-3.683-.67-5.242-1.057 14.714 3.305 42.465-7.2 50.683-22.472-.649 1.215-1.499 2.848-2.229 4.014" fill="#f6f9e5"/><path d="M68.564 119.42c-1.574.51-3.675 1.189-5.274 1.615 2.543-.669 3.466-.975 5.274-1.615M75.466 116.335a49.736 49.736 0 0 1-3.914 1.897c-.993.42-1.998.82-2.988 1.187 5.463-2.02 8.859-4.198 10.683-5.369a45.137 45.137 0 0 1-3.781 2.285" fill="#f6f9e5"/><path d="M41.642 5.131c15.414 9.609 31.555 27.677 39.244 48.83 10.092 27.765.225 50.795-24.261 59.696-9.35 3.399-18.385 3.84-26.549 1.553 10.794 7.718 24.281 9.375 38.492 4.21 24.487-8.901 34.354-31.93 24.261-59.696C83.101 32.958 59.84 11.129 41.642 5.131z" opacity=".5" fill="#f37375"/><path d="M33.438 44.955c-.458 12.764-5.48 22.861-11.217 22.551-5.737-.31-10.017-10.909-9.559-23.673.458-12.764 5.48-22.861 11.217-22.551 5.738.31 10.017 10.908 9.559 23.673z" opacity=".3" fill="#fff"/><path d="M13.849 90.303C1.113 55.266 11.584 11.819 28.982 5.495c5.246-1.907 12.177-.818 19.649 2.588-8.308-4.233-16.1-5.749-21.86-3.655C9.372 10.752-1.098 54.199 11.637 89.236c5.407 14.875 14.335 25.023 25.223 29.877-9.884-5.195-17.975-14.954-23.011-28.81z" opacity=".3" fill="#fff"/></svg>