<svg xmlns="http://www.w3.org/2000/svg" viewBox="0 0 212 533"><defs><style>.cls-5{fill:#fff}</style><filter id="luminosity-noclip" x="-2" y="-2" width="216" height="537" filterUnits="userSpaceOnUse" color-interpolation-filters="sRGB"><feFlood flood-color="#fff" result="bg"/><feBlend in="SourceGraphic" in2="bg"/></filter><clipPath id="clip-path"><path d="M0 29v483.56c0 2.37 3.55 3.87 6.46 2.74l85-33a6 6 0 0 1 4.18 0l84.95 33c2.91 1.13 6.46-.37 6.46-2.74V39.81 29s-1-29 25-29H22C0 0 0 29 0 29z" fill="none"/></clipPath><linearGradient id="linear-gradient" x1="101.5" y1="34" x2="101.5" gradientUnits="userSpaceOnUse"><stop offset=".05" stop-color="#fff" stop-opacity="0"/><stop offset=".77" stop-color="#fff"/><stop offset="1" stop-color="#fff" stop-opacity=".67"/></linearGradient></defs><g id="Accomplished"><g mask="url(#mask)" opacity=".1"><path d="M0 29l11 446.49v54.07c0 2.37 3.55 3.87 6.46 2.74l84.95-33a6 6 0 0 1 4.18 0l84.95 33c2.91 1.13 6.46-.37 6.46-2.74V483.3L195 319l-8-274.76v-4.43V29s-1-29 25-29H22C0 0 0 29 0 29z"/></g><path d="M0 29v483.56c0 2.37 3.55 3.87 6.46 2.74l85-33a6 6 0 0 1 4.18 0l84.95 33c2.91 1.13 6.46-.37 6.46-2.74V39.81 29s-1-29 25-29H22C0 0 0 29 0 29z" fill="#263b80"/><path class="cls-5" d="M144.4 304.6l-1.8 1.8h-16.19l-1.8-1.8-9-23.39-3.61-1.79H67l-3.59 1.79-9 23.39-1.8 1.8H36.46l-1.8-1.8v-18L76 182.27l1.8-1.8h23.38l1.8 1.8 41.42 104.34zM106.62 256l-16.19-43.14h-1.8L72.44 256l1.8 1.8h30.58z"/><g clip-path="url(#clip-path)"><path id="Line" class="cls-5" d="M169.79 500.49a9.65 9.65 0 0 1-3.69-.74l-72.7-29.06-72.7 29.06a9.6 9.6 0 0 1-8.88-.79 7.64 7.64 0 0 1-3.56-6.41V28.62v-.41C9.35 15 17.37-3 40-3c2.76 0 5-4.76 5-2s-.24 5-3 5C20 0 18.5 26.44 18.26 28.85V490l71.44-28.6a9.61 9.61 0 0 1 7.39 0l71.45 28.6V28.71c-.07-1.85-.54-22.71 11-29.48C186-4.6 190.62-10 199-10a5 5 0 0 1 5 5 5 5 0 0 1-5 5c-5.6 0-9.94 1.67-13.24 5.12-7.77 8.09-7.24 23.13-7.23 23.28s0 .15 0 .22v463.93A7.62 7.62 0 0 1 175 499a9.43 9.43 0 0 1-5.21 1.49z"/><path id="Shine" opacity=".29" fill="url(#linear-gradient)" d="M-37 0h277v34H-37z"/></g></g></svg>