<svg xmlns="http://www.w3.org/2000/svg" viewBox="0 0 301.08 297.01"><defs><linearGradient id="b" x1="180.05" y1="14.44" x2="123.55" y2="280.25" gradientUnits="userSpaceOnUse"><stop offset="0" stop-color="#fff" stop-opacity="0"/><stop offset="1"/></linearGradient><linearGradient id="c" x1="180.05" y1="14.44" x2="123.55" y2="280.25" gradientUnits="userSpaceOnUse"><stop offset="0" stop-color="#fff"/><stop offset="1" stop-opacity="0"/></linearGradient><filter id="a" x="13.78" y="9.3" width="276" height="276" filterUnits="userSpaceOnUse" color-interpolation-filters="sRGB"><feFlood flood-color="#fff" result="bg"/><feBlend in="SourceGraphic" in2="bg"/></filter></defs><g data-name="Silver Star"><circle cx="151.8" cy="147.35" r="135.85" fill="silver"/><path opacity=".9" fill="#fff" d="M153.06 69.49l16.96 52.2h54.88l-44.4 32.26 16.96 52.2-44.4-32.26-44.4 32.26 16.96-52.2-44.41-32.26h54.89l16.96-52.2z"/><circle data-name="Color" cx="151.8" cy="147.35" r="135.85" style="mix-blend-mode:darken" opacity=".14" fill="url(#b)"/><path d="M154.55 271.73a135.91 135.91 0 0 1-133.33-162 135.87 135.87 0 1 0 263.91 63.69 135.9 135.9 0 0 1-130.58 98.31z" fill="#231f20" opacity=".15"/><circle data-name="Color" cx="151.8" cy="147.35" r="135.85" style="mix-blend-mode:lighten" opacity=".34" fill="url(#c)"/><g mask="url(#d)" opacity=".21"><circle cx="151.8" cy="147.35" r="135.85" fill="#fff"/></g></g></svg>